<svg xmlns="http://www.w3.org/2000/svg" width="64" height="64" viewBox="0 0 48 48" id="loading"><path fill="#79a1e8" d="M27.86,24A8.18,8.18,0,0,1,31,30.47V32a1,1,0,0,1-1,1H18a1,1,0,0,1-1-1V30.47A8.18,8.18,0,0,1,20.14,24a8.16,8.16,0,0,1-3-5A8,8,0,0,1,17,17.53V16a1,1,0,0,1,1-1H30a1,1,0,0,1,1,1v1.53A8.25,8.25,0,0,1,30.24,21,8.08,8.08,0,0,1,27.86,24Z"></path><path fill="#f7931e" d="M24,41A17,17,0,0,1,24,7a1,1,0,0,1,0,2A15,15,0,1,0,39,24a1,1,0,0,1,2,0A17,17,0,0,1,24,41Z"></path><path fill="#f7931e" d="M24 9a1 1 0 0 1-1-1 1 1 0 0 1 .08-.38 1.15 1.15 0 0 1 .21-.33A1 1 0 0 1 24.2 7a.64.64 0 0 1 .18.06.76.76 0 0 1 .18.09l.15.12a1.15 1.15 0 0 1 .21.33.94.94 0 0 1 0 .76 1.15 1.15 0 0 1-.21.33l-.15.12a.76.76 0 0 1-.18.09A.64.64 0 0 1 24.2 9zM37.86 18.26A1 1 0 0 1 38.4 17h0a1 1 0 0 1 1.31.54h0a1 1 0 0 1-.54 1.31h0a1.07 1.07 0 0 1-.39.07h0A1 1 0 0 1 37.86 18.26zm-3.25-4.87a1 1 0 0 1 0-1.41h0A1 1 0 0 1 36 12h0a1 1 0 0 1 0 1.41h0a1 1 0 0 1-.71.3h0A1 1 0 0 1 34.61 13.39zm-4.87-3.25h0a1 1 0 0 1-.54-1.31h0a1 1 0 0 1 1.31-.54h0a1 1 0 0 1 .54 1.31h0a1 1 0 0 1-.92.62h0A1.09 1.09 0 0 1 29.74 10.14zM40 25a1 1 0 0 1-.71-.29 1 1 0 0 1 0-1.42l.15-.12a.76.76 0 0 1 .18-.09L39.8 23a1 1 0 0 1 .39 0 .6.6 0 0 1 .19.06.56.56 0 0 1 .17.09l.16.12a1 1 0 0 1 0 1.42A1 1 0 0 1 40 25z"></path><path fill="#f7931e" d="M22.13,12.13a1,1,0,0,1-.7-.29,1,1,0,0,1,0-1.41l2.29-2.3L21.43,5.84a1,1,0,1,1,1.41-1.41l3,3a1,1,0,0,1,0,1.41l-3,3A1,1,0,0,1,22.13,12.13Z"></path><path fill="#f9d015" d="M28.78 31.38l-4-5a1 1 0 0 0-1.56 0l-4 5a1 1 0 0 0-.12 1.05A1 1 0 0 0 20 33h8a1 1 0 0 0 .9-.57A1 1 0 0 0 28.78 31.38zM30.87 19a8 8 0 0 1-.63 2H17.76a8 8 0 0 1-.63-2z"></path><path fill="#4b31aa" d="M32 17H16a1 1 0 0 1 0-2H32a1 1 0 0 1 0 2zM32 33H16a1 1 0 0 1 0-2H32a1 1 0 0 1 0 2z"></path></svg>